<svg xmlns="http://www.w3.org/2000/svg" width="160" height="160" viewBox="0 0 160 160"><defs><linearGradient id="a" x2=".7" y2="1"><stop stop-color="#8394ff"/><stop offset="1" stop-color="#4b65ed"/></linearGradient><linearGradient id="b" x2="0" y2="1"><stop stop-color="#283e89"/><stop offset="1" stop-color="#17295f"/></linearGradient></defs><ellipse cx="81" cy="145" rx="43" ry="6" fill="#6578dc" opacity=".12"/><path d="M80 28V18" stroke="#526ad6" stroke-width="5" stroke-linecap="round"/><circle cx="80" cy="14" r="7" fill="#94ead4"/><rect x="42" y="92" width="76" height="42" rx="20" fill="url(#a)"/><rect x="34" y="29" width="94" height="81" rx="30" fill="url(#a)" stroke="#536ad7" stroke-width="2"/><rect x="26" y="55" width="12" height="30" rx="6" fill="#637df2"/><rect x="124" y="55" width="12" height="30" rx="6" fill="#526ce3"/><rect x="45" y="46" width="72" height="48" rx="16" fill="url(#b)"/><path d="m59 61 9 8-9 8m19 0h13" fill="none" stroke="#9af5db" stroke-width="5" stroke-linecap="round" stroke-linejoin="round"/><ellipse cx="52" cy="136" rx="15" ry="10" fill="#526de3"/><ellipse cx="108" cy="136" rx="15" ry="10" fill="#526de3"/><rect x="93" y="99" width="47" height="32" rx="5" transform="rotate(-7 93 99)" fill="#223575" stroke="#172955" stroke-width="2"/><path d="m110 108 6 5-6 6" fill="none" stroke="#9af5db" stroke-width="3" stroke-linecap="round"/><path d="M85 132h54" stroke="#314785" stroke-width="6" stroke-linecap="round"/><ellipse cx="40" cy="112" rx="10" ry="15" transform="rotate(-27 40 112)" fill="#6881f3"/></svg>
